<svg width="20" height="20" xmlns="http://www.w3.org/2000/svg">
 <g>
  <path id="svg_1" fill="white" d="m20,10c0,5.5228 -4.4772,10 -10,10c-5.52285,0 -10,-4.4772 -10,-10c0,-5.52285 4.47715,-10 10,-10c5.5228,0 10,4.47715 10,10z"/>
  <path id="svg_2" fill="#1E88E5" d="m8.64136,12.72981c0.01172,-0.69726 0.09082,-1.24804 0.2373,-1.65234c0.14649,-0.4043 0.44532,-0.85254 0.89649,-1.34473l1.15137,-1.18652c0.49218,-0.55664 0.73828,-1.1543 0.73828,-1.79297c0,-0.61523 -0.16114,-1.0957 -0.4834,-1.4414c-0.32227,-0.35157 -0.79102,-0.52735 -1.40625,-0.52735c-0.59766,0 -1.07813,0.15821 -1.44141,0.47461c-0.36328,0.31641 -0.54492,0.74121 -0.54492,1.27442l-1.62598,0c0.01172,-0.94922 0.34864,-1.71387 1.01075,-2.29395c0.66796,-0.58594 1.53515,-0.87891 2.60156,-0.87891c1.10742,0 1.96875,0.29883 2.58398,0.89649c0.6211,0.59179 0.93164,1.40625 0.93164,2.44336c0,1.02539 -0.47461,2.03613 -1.42382,3.03222l-0.95801,0.94922c-0.42774,0.47461 -0.6416,1.15723 -0.6416,2.04785l-1.62598,0zm-0.07031,2.78612c0,-0.2637 0.0791,-0.4834 0.2373,-0.6592c0.16406,-0.1816 0.4043,-0.2724 0.7207,-0.2724c0.31641,0 0.55664,0.0908 0.72071,0.2724c0.16406,0.1758 0.24609,0.3955 0.24609,0.6592c0,0.2637 -0.08203,0.4834 -0.24609,0.6592c-0.16407,0.1699 -0.4043,0.2549 -0.72071,0.2549c-0.3164,0 -0.55664,-0.085 -0.7207,-0.2549c-0.1582,-0.1758 -0.2373,-0.3955 -0.2373,-0.6592z"/>
 </g>
</svg>